<?xml version="1.0" encoding="UTF-8" standalone="no"?>
<!DOCTYPE svg PUBLIC "-//W3C//DTD SVG 1.1//EN" "http://www.w3.org/Graphics/SVG/1.1/DTD/svg11.dtd">
<svg width="100%" height="100%" viewBox="0 0 16 16" version="1.1" xmlns="http://www.w3.org/2000/svg" xmlns:xlink="http://www.w3.org/1999/xlink" xml:space="preserve" xmlns:serif="http://www.serif.com/" style="fill-rule:evenodd;clip-rule:evenodd;stroke-linejoin:round;stroke-miterlimit:2;">
    <g id="icon-big" serif:id="icon big">
    </g>
    <g id="icon-small" serif:id="icon small">
        <path d="M2,11l1,-0l-0,2l2,0l0,1l-3,0l0,-3Zm12,3l-3,0l-0,-1l2,0l-0,-2l1,-0l0,3Zm0,-9l-1,0l-0,-2l-2,0l-0,-1l3,0l0,3Zm-9,-3l0,1l-2,-0l-0,2l-1,0l0,-3l3,0Z"/>
        <path d="M4,10l-3,-0l0,5l5,0l0,-3l-2,0c-0,0 -0,-2 -0,-2Zm6,5l5,0l0,-5l-3,-0l-0,2c0,0 -2,0 -2,0l-0,3Zm-8,-4l1,-0l-0,2l2,0l0,1l-3,0l0,-3Zm12,3l-3,0l-0,-1l2,0l-0,-2l1,-0l0,3Zm-8,-10l0,-3l-5,0l0,5l3,0l-0,-2c-0,-0 2,-0 2,-0Zm6,2l3,0l0,-5l-5,0l-0,3l2,0c-0,0 -0,2 -0,2Zm2,-1l-1,0l-0,-2l-2,0l-0,-1l3,0l0,3Zm-9,-3l0,1l-2,-0l-0,2l-1,0l0,-3l3,0Z" style="fill:#fff;"/>
        <path d="M9,8l0,-3l-2,0l0,3l-2,0l3,3l3,-3l-2,0Z" style="fill:#151212;"/>
        <path d="M10,7l0,-2c0,-0.552 -0.448,-1 -1,-1l-2,0c-0.552,0 -1,0.448 -1,1l0,2c-0,0 -1,0 -1,0c-0.404,0 -0.769,0.244 -0.924,0.617c-0.155,0.374 -0.069,0.804 0.217,1.09l3,3c0.39,0.391 1.024,0.391 1.414,0l3,-3c0.286,-0.286 0.372,-0.716 0.217,-1.09c-0.155,-0.373 -0.52,-0.617 -0.924,-0.617l-1,0Zm-1,1l0,-3l-2,0l0,3l-2,0l3,3l3,-3l-2,0Z" style="fill:#fff;"/>
    </g>
</svg>
